<?xml version="1.0" encoding="UTF-8"?>
<svg fill="currentColor" xmlns="http://www.w3.org/2000/svg" width="1em" height="1em" viewBox="0 0 491.52 491.52">
    <path class="cls-1" d="M425.98,208.9c-36.86,0-65.54-28.67-65.54-65.54v-4.1c-38.91-16.38-51.2-65.54-26.62-100.35l12.29-16.38C315.39,8.19,280.58,0,245.76,0,110.59,0,0,110.59,0,245.76s110.59,245.76,245.76,245.76,245.76-110.59,245.76-245.76c0-22.53-4.1-47.1-10.24-67.58-12.29,20.48-32.77,30.72-55.3,30.72h0Zm-182.27,18.43c43.01,0,77.82,34.82,77.82,77.82,0,34.82-24.58,65.54-57.34,73.73v10.24c0,12.29-8.19,20.48-20.48,20.48s-20.48-8.19-20.48-20.48v-10.24c-32.77-8.19-57.34-38.91-57.34-73.73,0-12.29,8.19-20.48,20.48-20.48s20.48,8.19,20.48,20.48c0,20.48,16.38,36.86,36.86,36.86s36.86-16.38,36.86-36.86-16.38-36.86-36.86-36.86c-43.01,0-77.82-34.82-77.82-77.82,0-34.82,24.58-65.54,57.34-73.73v-10.24c0-12.29,8.19-20.48,20.48-20.48s20.48,8.19,20.48,20.48v10.24c32.77,8.19,57.34,38.91,57.34,73.73,0,12.29-8.19,20.48-20.48,20.48s-20.48-8.19-20.48-20.48c0-20.48-16.38-36.86-36.86-36.86s-36.86,16.38-36.86,36.86,16.38,36.86,36.86,36.86h0Z" />
    <path class="cls-1" d="M444.42,12.29C434.18,0,413.7,0,403.46,12.29l-38.91,53.25c-12.29,16.38,0,38.91,20.48,38.91h14.34v38.91c0,14.34,10.24,24.58,24.58,24.58s24.58-10.24,24.58-24.58v-38.91h14.34c10.24,0,18.43-6.14,22.53-14.34s4.1-18.43-2.05-26.62l-38.91-51.2Z" />
</svg>