<svg xmlns="http://www.w3.org/2000/svg" width="1em" height="1em" viewBox="0 0 512 512">
    <defs>
        <style>.cls-1{fill:#fcd249;}.cls-2{fill:#f9b938;}.cls-3{fill:#e59c1c;}.cls-4{fill:#91ce91;}.cls-5{fill:#5eaa5e;}.cls-6{fill:#4d964d;}.cls-7{fill:#1e804d;}.cls-8{fill:#1a653c;}.cls-9{fill:#269f5c;}.cls-10{fill:#dadada;}.cls-11{fill:silver;}.cls-12{fill:#32b16a;}.cls-13{fill:#ffd148;}</style>
    </defs>
    <g id="Camada_2" data-name="Camada 2">
        <g id="Capa_1" data-name="Capa 1">
            <circle class="cls-1" cx="410.6" cy="83.6" r="83.6" />
            <path class="cls-2" d="M362.9,111.2a83.4,83.4,0,0,1,18.9-106,84.5,84.5,0,0,0-13,6A83.6,83.6,0,0,0,452.4,156a81.6,81.6,0,0,0,11.7-8.2A83.6,83.6,0,0,1,362.9,111.2Z" />
            <circle class="cls-2" cx="410.6" cy="83.6" r="55.1" />
            <path class="cls-3" d="M385.2,98.3A55.1,55.1,0,0,1,395,30.8a54.1,54.1,0,0,0-11.9,5.1,55.1,55.1,0,1,0,55.1,95.4,57.2,57.2,0,0,0,10.4-7.7A55.2,55.2,0,0,1,385.2,98.3Z" />
            <circle class="cls-1" cx="330.5" cy="83.6" r="83.6" />
            <path class="cls-2" d="M282.7,111.2a83.7,83.7,0,0,1,18.9-106A83.6,83.6,0,1,0,372.3,156a81.6,81.6,0,0,0,11.7-8.2A83.8,83.8,0,0,1,282.7,111.2Z" />
            <circle class="cls-2" cx="330.5" cy="83.6" r="55.1" />
            <path class="cls-3" d="M305,98.3a55.1,55.1,0,0,1,9.8-67.5,54.1,54.1,0,0,0-11.9,5.1A55.1,55.1,0,1,0,358,131.3a53.9,53.9,0,0,0,10.4-7.7A55.2,55.2,0,0,1,305,98.3Z" />
            <path class="cls-4" d="M337.5,140.1,202.8,4.4a15.1,15.1,0,0,0-21.2,0L46.9,140.1Z" />
            <path class="cls-5" d="M202.8,4.4a15.1,15.1,0,0,0-21.2,0L46.9,140.1H87.1L212.3,14Z" />
            <path class="cls-5" d="M181.6,44.7,87.2,140.1h210L202.8,44.7A15.1,15.1,0,0,0,181.6,44.7Z" />
            <path class="cls-6" d="M202.8,44.7a15.1,15.1,0,0,0-21.2,0L87.2,140.1H114l91.6-92.6Z" />
            <path class="cls-7" d="M512,393.7v71.6A46.8,46.8,0,0,1,465.3,512H46.7A46.7,46.7,0,0,1,0,465.3V185.7a46.7,46.7,0,0,1,46.7-46.6H465.3A46.7,46.7,0,0,1,512,185.7v71.4" />
            <path class="cls-8" d="M28.8,465.3V185.7a46.7,46.7,0,0,1,46.7-46.6H46.7A46.7,46.7,0,0,0,0,185.7V465.3A46.7,46.7,0,0,0,46.7,512H75.5A46.8,46.8,0,0,1,28.8,465.3Z" />
            <path class="cls-9" d="M512,259.6H392.9A66.1,66.1,0,0,0,327,325.5h0a66.1,66.1,0,0,0,65.9,66H512Z" />
            <path class="cls-8" d="M328.5,311.4a65.5,65.5,0,0,0-1.5,14.1h0a66.1,66.1,0,0,0,65.9,66H512V363.1H392.9A66.2,66.2,0,0,1,328.5,311.4Z" />
            <circle class="cls-10" cx="394.7" cy="325.2" r="37.1" />
            <path class="cls-11" d="M417.2,342.5A37,37,0,0,1,391,297.1a39.6,39.6,0,0,1,3.7-9,37.1,37.1,0,1,0,32.1,55.7A35.8,35.8,0,0,1,417.2,342.5Z" />
            <path class="cls-12" d="M37.7,483.2A7.9,7.9,0,0,1,46,476h.6a7.7,7.7,0,0,1,7.6,7.8C54.1,494.6,37,493.6,37.7,483.2Zm419.4,8.3h-1a7.7,7.7,0,1,1,0-15.4h1a7.7,7.7,0,1,1,0,15.4Zm-37.3,0h-1.1a7.7,7.7,0,0,1,0-15.4h1.1a7.7,7.7,0,0,1,0,15.4Zm-37.4,0h-1a7.7,7.7,0,1,1,0-15.4h1a7.7,7.7,0,1,1,0,15.4Zm-37.3,0h-1a7.7,7.7,0,1,1,0-15.4h1a7.7,7.7,0,1,1,0,15.4Zm-37.3,0h-1.1a7.7,7.7,0,0,1,0-15.4h1.1a7.7,7.7,0,0,1,0,15.4Zm-37.4,0h-1a7.7,7.7,0,1,1,0-15.4h1a7.7,7.7,0,1,1,0,15.4Zm-37.3,0h-1a7.7,7.7,0,1,1,0-15.4h1a7.7,7.7,0,1,1,0,15.4Zm-37.3,0h-1.1a7.7,7.7,0,0,1,0-15.4h1.1a7.7,7.7,0,0,1,0,15.4Zm-37.3,0h-1.1a7.7,7.7,0,0,1-7.7-7.7c0-10.3,16.5-10.4,16.5,0A7.7,7.7,0,0,1,158.5,491.5Zm-37.4,0h-1a7.6,7.6,0,0,1-7.7-7.7c0-10.3,16.5-10.4,16.5,0A7.7,7.7,0,0,1,121.1,491.5Zm-37.3,0h-1a7.7,7.7,0,1,1,0-15.4h1a7.7,7.7,0,1,1,0,15.4ZM483.7,474h-.3a7.7,7.7,0,0,1-7.4-8v-.6h0a7.8,7.8,0,0,1,15.5,0h0a5.3,5.3,0,0,1-.1,1.3A7.8,7.8,0,0,1,483.7,474ZM28.2,464.5a7.6,7.6,0,0,1-7.7-7.7v-1a7.7,7.7,0,1,1,15.4,0v1A7.6,7.6,0,0,1,28.2,464.5Zm455.5-27.9a7.7,7.7,0,0,1-7.7-7.7v-1a7.8,7.8,0,1,1,15.5,0v1A7.7,7.7,0,0,1,483.7,436.6ZM28.2,427.2a7.7,7.7,0,0,1-7.7-7.7v-1.1a7.7,7.7,0,0,1,15.4,0v1.1A7.7,7.7,0,0,1,28.2,427.2Zm0-37.3a7.7,7.7,0,0,1-7.7-7.8v-1a7.7,7.7,0,1,1,15.4,0v1A7.7,7.7,0,0,1,28.2,389.9Zm0-37.4a7.6,7.6,0,0,1-7.7-7.7v-1a7.6,7.6,0,0,1,7.7-7.7C38.5,336.1,38.5,352.5,28.2,352.5Zm0-37.3a7.6,7.6,0,0,1-7.7-7.7v-1a7.7,7.7,0,1,1,15.4,0v1A7.6,7.6,0,0,1,28.2,315.2Zm0-37.3a7.7,7.7,0,0,1-7.7-7.7v-1.1a7.7,7.7,0,1,1,15.4,0v1.1A7.7,7.7,0,0,1,28.2,277.9Zm0-37.3a7.7,7.7,0,0,1-7.7-7.8v-1a7.7,7.7,0,1,1,15.4,0v1A7.7,7.7,0,0,1,28.2,240.6Zm455.5-9.9A7.7,7.7,0,0,1,476,223v-1a7.8,7.8,0,1,1,15.5,0v1A7.7,7.7,0,0,1,483.7,230.7ZM28.2,203.2a7.6,7.6,0,0,1-7.7-7.7v-1a7.7,7.7,0,1,1,15.4,0v1A7.6,7.6,0,0,1,28.2,203.2ZM476,185.7v-.6c-.6-10.3,15.4-11.7,15.5.5a7.8,7.8,0,1,1-15.5.1ZM45.2,175.1c-9.8,0-11-15.3.9-15.5C56.1,159.3,57.4,175.1,45.2,175.1Zm411.7-.1h-1a7.7,7.7,0,1,1,0-15.4h1a7.7,7.7,0,1,1,0,15.4Zm-37.3,0h-1.1a7.7,7.7,0,1,1,0-15.4h1.1a7.7,7.7,0,0,1,0,15.4Zm-37.4,0h-1a7.7,7.7,0,1,1,0-15.4h1a7.7,7.7,0,1,1,0,15.4Zm-37.3,0h-1a7.7,7.7,0,1,1,0-15.4h1a7.7,7.7,0,1,1,0,15.4Zm-37.3,0h-1.1a7.7,7.7,0,1,1,0-15.4h1.1a7.7,7.7,0,0,1,0,15.4Zm-37.4,0h-1a7.7,7.7,0,1,1,0-15.4h1a7.7,7.7,0,1,1,0,15.4Zm-37.3,0h-1a7.7,7.7,0,0,1,0-15.4h1a7.7,7.7,0,0,1,0,15.4Zm-37.3,0h-1a7.7,7.7,0,0,1-7.8-7.7c0-10.3,16.5-10.4,16.5,0A7.6,7.6,0,0,1,195.6,175Zm-37.3,0h-1.1a7.7,7.7,0,0,1,0-15.4h1.1a7.7,7.7,0,0,1,0,15.4Zm-37.4,0h-1a7.7,7.7,0,0,1,0-15.4h1a7.7,7.7,0,1,1,0,15.4Zm-37.3,0h-1a7.7,7.7,0,1,1,0-15.4h1a7.7,7.7,0,0,1,0,15.4Z" />
            <path class="cls-13" d="M261.5,321.1a19.2,19.2,0,0,1-19.1,19.1h-46v54.9a19.1,19.1,0,0,1-38.2,0V340.2h-46a19.2,19.2,0,0,1,0-38.3h46V256a19.1,19.1,0,1,1,38.2,0v45.9h46A19.2,19.2,0,0,1,261.5,321.1Z" />
        </g>
    </g>
</svg>